<svg width="371" height="238" viewBox="0 0 371 238" fill="none" xmlns="http://www.w3.org/2000/svg">
<!-- Orange/Amber - Warm Theme -->
<path d="M186.356 1C224.19 35.8333 277.156 131.7 186.356 236.5C148.356 195.167 95.1562 90.2 186.356 1Z" fill="#F59E0B" stroke="#F59E0B"/>
<path d="M283.5 8C318.667 67.3333 348.4 196.1 186 236.5C186.667 180.833 207.1 57.2 283.5 8Z" fill="#FBBF24" stroke="#FBBF24"/>
<path d="M370 71C326.333 77 228.4 118.5 186 236.5C238 236 347.6 202.2 370 71Z" fill="#FCD34D" stroke="#FCD34D"/>
<path d="M87.6516 8C52.4849 67.3333 22.7516 196.1 185.152 236.5C184.485 180.833 164.052 57.2 87.6516 8Z" fill="#D97706" stroke="#D97706"/>
<path d="M1 71C44.6667 77 142.6 118.5 185 236.5C133 236 23.4 202.2 1 71Z" fill="#B45309" stroke="#B45309"/>
</svg>
